/* XPM */
static char *_42b5ca6bbdb4f218367d9c28cee6a1fC3qAT6brl2TTKvV3[] = {
/* columns rows colors chars-per-pixel */
"64 64 107 2 ",
"   c #5D341F",
".  c #62361F",
"X  c #66381F",
"o  c #5C3621",
"O  c #5D3A25",
"+  c #623720",
"@  c #683720",
"#  c #653B23",
"$  c #6B3D24",
"%  c #643F29",
"&  c #6A3F28",
"*  c #713E24",
"=  c #674026",
"-  c #6C4126",
";  c #65422A",
":  c #6D4229",
">  c #6E492C",
",  c #724226",
"<  c #784627",
"1  c #72452A",
"2  c #784729",
"3  c #74492D",
"4  c #7A4B2D",
"5  c #7D522F",
"6  c #674731",
"7  c #6B4A33",
"8  c #754D31",
"9  c #7A4E31",
"0  c #765134",
"q  c #7C5334",
"w  c #7F5934",
"e  c #7B5639",
"r  c #7D5A3C",
"t  c #825635",
"y  c #845936",
"u  c #895C36",
"i  c #845738",
"p  c #855B3A",
"a  c #8A5E3A",
"s  c #866039",
"d  c #8D623C",
"f  c #92643D",
"g  c #95693E",
"h  c #9B6B3F",
"j  c #8D6442",
"k  c #8E6946",
"l  c #8C674C",
"z  c #8D684A",
"x  c #926641",
"c  c #956A43",
"v  c #9A6D43",
"b  c #976D49",
"n  c #986E49",
"m  c #9D7145",
"M  c #9E724A",
"N  c #A27446",
"B  c #A87947",
"V  c #A2754A",
"C  c #A9774B",
"Z  c #A6794B",
"A  c #AB7C4D",
"S  c #B07F4D",
"D  c #A17750",
"F  c #A47A51",
"G  c #A97C51",
"H  c #B07F51",
"J  c #AE804F",
"K  c #B2814F",
"L  c #AD8152",
"P  c #AD8156",
"I  c #AF845A",
"U  c #B38350",
"Y  c #B18252",
"T  c #B48451",
"R  c #B48553",
"E  c #B58756",
"W  c #B88754",
"Q  c #B98754",
"!  c #B78856",
"~  c #B88957",
"^  c #B28659",
"/  c #B5895C",
"(  c #B88A58",
")  c #BA8B58",
"_  c #BC8B58",
"`  c #B98C58",
"'  c #BB8C5A",
"]  c #BC8E5B",
"[  c #BD8E5C",
"{  c #BF905A",
"}  c #BF915E",
"|  c #BD8F60",
" . c #BE9161",
".. c #C0915C",
"X. c #C0925F",
"o. c #C1945F",
"O. c #C19360",
"+. c #C39460",
"@. c #C39662",
"#. c #C59762",
"$. c #C69963",
"%. c #C79964",
"&. c #C89B65",
"*. c #C99C67",
"=. c #C79968",
"-. c #C99C68",
";. c #CBA069",
/* pixels */
". . . . + + + + + $ $ $ @ $ $ @ @ $ $ @ + @ @ + + @ + @ + + + $ - @ @ @ X $ $ $ $ $ X + + . . . . . + + + $ @ @ @ + + + + + + + ",
"& > t u a d f f g v N u # f c c v v N q : f g g g g g q # t u d h f g y O w d d d u u > O s d d d x c s # a c v v c c x x j w & ",
"- q N A K K T T T T K v q N T ~ ] ] ~ v y S Q ~ ~ T K g 0 B K Q ~ ~ Q v > g Z Z B N h t > A ~ ] { ! ! Z 0 v T ~ ' ' ~ ! E U c - ",
"$ q A T ~ ' ] [ [ ' ~ v t Z ] o.@.o.] M a T ] X.} ] ~ c t S ] @.#.X.] V 0 m A J A B N y q E o.$.$.} } G t m ! ] } } } [ E Z c - ",
"1 u U ' } O.@.@.@.O.] M t J X.#.#.#.} M d ~ X.o.o.X.~ v a _ $.*.*.$.X.V t Z L L J Z N t t ' $.*.-.*.&.L p V ) X.@.@.@.X.) A c & ",
"3 f ) } @.#.#.$.$.@.} V y L o.#.#.@.} M a ) o.o.o.X.~ v x X.*.-.-.&.#.V t Z L L J Z N p t ' *.;.;.;.*.L i Z ' O.@.@.@.@.} ' v & ",
"3 c } @.$.$.$.$.$.@.[ Z i A X.#.@.} } m a ~ o.o.o.X.~ v x X.-.-.-.&.#.Z p Z L L L Z N u q ~ *.;.;.;.*.L p Z ' O.@.@.@.@.} ' v ; ",
": a [ @.$.$.$.$.$.@.} Z p A } @.X.] ' v p ~ o.o.o.} ~ c x X.-.-.-.*.#.Z a Z L L L A B u t ! *.;.;.;.*.L i Z ' O.@.@.@.@.} ) c = ",
"- a ' @.$.$.$.$.@.O.[ Z p A ' } } ' E c a ~ X.o.o.] ~ v d } *.-.-.&.#.Z a Z L L L A B u q ~ *.;.;.-.*.L i Z ' X.@.@.@.X.[ ! x - ",
"& d E } @.$.#.@.O.} ' V t Z ! ' ' ) ^ x d T ] X.{ ] Q x a _ &.-.-.&.X.V t N J L J A Z a q ~ *.-.;.-.$.G t Z ) } @.X.X.} ) T x - ",
"& y A ) X.@.@.X.[ ) ! V q N U ! ) ^ L x a U _ ] ] ~ K f t T #.&.$.#.] M 0 m A L A A Z a q T #.$.$.$.o.V q N T ' [ ] ' ) E A g , ",
", t N L ~ ' ' ) E U U v 3 v Z A L L A a t S T T T K A a 9 A ] X.X.] E v 3 v Z A Z Z N p 9 A ' { { ] ~ M q v A U E E E U A Z f - ",
"2 3 t a a d d d d d f u 4 t y a a f N 0 > y u a a a a 9 : a f c v x x q = q y y u y y 3 = y a d d d d i 3 i a d a a a u y y 4 $ ",
"@ @ & , , , * , , , , < < , , , , , 2 4 , $ $ $ & * * , & & * * * , , 1 , & @ @ $ @ @ $ $ @ @ & * & $ $ & * , * $ $ $ $ $ @ @ @ ",
"+ + + $ & - & $ $ $ $ $ $ + . . . . + @ @ @ @ @ + + + @ @ X X + X @ @ @ @ + X X X X X X + X .     . + + . + + + + + @ @ + X . . ",
"1 9 d f v v v c c c g f y =   = = # > f v v m m v v v v v g t : & q x c c c u : > - : u u &   O o # ; p d f f f f g g g d u 4 $ ",
"- q m A J U K J A A A Z t - # - : : > c Q ] _ ) _ ] ] ) ~ T g - & c ) [ [ ] ! L L V V Z q - + = : 1 ; d A E ~ ! E E T J B h 5 - ",
", t Z K T ! ~ T T U A N > 1 # $ $ & 4 q U [ X.X.X.O.O.O.[ ) v : $ v X.#.#.#.X.[ ) ~ E Z 3 2 & $ $ = 1 > A ] X.X.} ] ) E K B y = ",
"- y A T ~ ' ' ' ! T U d : : % = - ; 4 3 m [ @.@.@.#.#.#.O.[ V 1 & V #.&.&.&.#.O.[ ] ~ v 3 1 # = : ; 1 & f ] o.o.o.o.} ' E A u $ ",
"- p A ! ' ' ' ' ' E A 3 1 - e = = p q 4 q E O.#.#.#.#.#.@.X.V , : V #.&.=.=.#.#.O.[ E t 3 = e 1 : i > > 3 ^ o.o.o.o.X.] ! K d + ",
"- p A E ' ' ' ' ' ! c > - 9 j : = j j 9 1 m X.@.#.#.#.#.@.X.V 1 : V #.=.=.=.$.#.#.[ Z 3 : 8 k 1 , j i = > c X.o.o.o.X.] ~ U d + ",
", u A T ' ' ' ' ' U 0 1 & x x : > j F q 2 q ) O.#.#.#.#.@.[ V : : Z &.=.=.=.&.#.@.[ a 1 & b b 1 1 c Z 3 3 0 ! X.o.o.} ] ~ U d & ",
"1 a A T ' ' ' ' ~ v > , > G x 3 1 d U j 4 = M [ @.#.#.#.O.[ M $ : Z &.=.=.=.&.#.O.U 9 : 8 L n 3 4 c E d > > m { X.o.X.{ ) U a : ",
"1 u A T ~ ' ' ' T 0 1 & j E c 3 1 p U Z 9 : q E O.#.#.@.O.] v $ : F %.=.=.=.&.#.X.v 9 & k / M 9 4 c E Z 3 > t ~ X.o.} ] ) U a > ",
", u A U ~ ' ' ] v - , ; L ) n 3 3 x U E p > = M [ @.#.@.O.] v & , F #.=.=.=.&.#.) i 3 ; G / M 9 4 x ^ ^ d 1 : Z { } { ] ) U d = ",
", p A U ~ ' ' ! q - $ p ] ) M > 3 x E ) M > : q E X.O.O.O.] m & , F #.=.=.=.&.@.V 1 = r / / M 4 < x ^ E V 3 : a ' ] ] ] ) U d - ",
"- t Z U ~ ' ] Z 3 2 = V X.[ V : 1 j E ) E q : : M [ O.O.O.] M & : D $.=.=.=.#.[ i 1 ; G [ [ M 4 , x ^ E ^ q 1 3 L ] ] ] ) T f = ",
"& t Z K ! ' ' d 1 - 0 [ O.[ V : : j E ) _ c > 1 t ! X.O.O.] V & : V $.=.=.&.#.G 3 - r [ } [ v 1 & j M F [ M 3 $ f ' ] ] ) T f - ",
"- t Z K E ' Z 3 - ; F #.@.X.V : $ j Q ] [ U 9 : - V ] X.O.] V & : D #.=.=.&.O.a 1 # D O. .[ v : $ u L ) } ' i 1 1 A ' ' ~ T c $ ",
", t A K T L q 1 & n #.#.#.O.Z : $ j ~ [ [ ) i # & i E [ O.] M $ : V #.=.=.&.U 3 - 7 /  .O.[ v : $ p ) } @.#.Z 3 : a E ~ ~ T c - ",
", t A T T v 1 1 8 | #.#.#.O.Z : : x ~ [ [ ] c % & 3 Z ) } ] v & & M #.=.=.$.x 1 O z | @.O.[ m = $ d ) } #.#.[ q 1 - V ~ ~ T c - ",
", p A T T t - # j #.#.#.#.O.G : : x ) [ [ ] U 9 + & a U ) ) m # & M O.&.=.[ q > ; I O.@.@.^ x $ $ x E } #.#.#.c > $ t E ~ T c - ",
"1 u A T v : , ; ^ $.#.#.#.O.G : : x ) X.X.[ ) x # + 1 Z T ~ m & : M X.&.&.M 1 # k O.#.#.#.) x & $ x E } #.$.#.^ > : 1 Z ! T v - ",
", a A A 0 - $ p #.$.$.$.#.O.G 3 , x ) X.O.X.] H 8 + - v K ~ V & : M X.$.O.q - ; ) #.#.$.#.X.v & $ x E } #.&.&.@.p > 1 f T T m - ",
", a A v = > ; L $.=.=.$.#.O.G > : x ) X.O.O.X.) v & & t A E V & : n [ #.Z 1 & j #.$.$.$.#.X.v $ $ x E [ #.-.-.$.L 3 3 4 A T m 3 ",
", a A q : = p O.$.=.=.$.#.O.G > & x _ O.O.O.O.[ T 0 $ : v U V $ = c ] [ a 2 7 ^ #.$.$.$.#.X.v $ $ x E } $.-.-.-.#.x 3 : x T v 3 ",
"1 a v = - > G #.=.=.=.=.#.O.G : : c _ O.#.#.O.O.] v & $ t A N : : c _ V 9 - r O.#.$.$.#.@.[ v & & x E } $.-.-.-.&.) q 1 9 A v 3 ",
", a i = - p X.$.=.=.=.=.#.O.G : & x _ O.#.#.#.O.X.U 8 $ : v m 1 - x E t 1 O D #.$.$.$.#.O.] v $ & x E } $.-.-.-.-.#.b 3 $ v c 3 ",
", q > : ; G #.=.=.=.=.=.$.@.G : & c ) O.#.#.#.#.O.] x $ $ q c 1 = j v 3 - 7 / #.$.$.$.#.O.] v $ & x E } #.&.-.-.#.O.U 8 $ q c 1 ",
"* % > $ q } #.=.=.=.=.=.=.#.G : & b ) O.#.#.#.#.@.X.G 3 & $ p 1 : p q 1 O l  .$.$.$.#.#.X._ m $ & x E [ #.&.-.-. .[ [ e $ 1 d - ",
"* o > ; Z O.#.$.=.=.=.=.$.#.G : $ b ) O.#.#.#.#.@.O.) i $ & > 1 : q 3 : 6 ^ #.$.$.$.#.@.[ ] m & $ x E [ #.&.-.-.-.#.X.c & : 3 $ ",
"1 + > 0 ) O.#.#.=.=.=.=.$.#.F : & c _ O.#.#.#.#.#.@.} M & - # - - & 1 + k @.$.&.$.$.#.O.[ ) v & & x E [ @.#.-.-.-.$.O.G = : = + ",
"< O ; b [ O.#.#.=.=.=.=.=.#.F 1 : c ) O.#.#.#.#.#.#.X.E 3 $ + & $ # $ ; ^ #.$.$.$.#.@.O.] E v $ & x T [ @.#.$.=.$.#.O.) t $ $ # ",
"1 O 7 G [ O.@.#.$.=.=.=.$.#.G 3 : n ) X.#.#.#.#.#.O.[ ) d & + - 1 , # p _ O.#.#.#.@.O.[ ~ U g 1 & f U [ } @.#.#.#.@.} ) M & # $ ",
"1 o d U ) ] X.O.@.#.#.#.@.} Z 1 : c Q X.@.O.O.O.X.[ ] ) Z 3 o : : = % V ~ [ [ } X.[ ] ~ T A f > & d S ~ [ [ } O.X.} ' E A 3 o = ",
", : N A U E ~ ' [ [ ) U [ [ M 1 : x H ) [ ] ] _ ) Q E U A a o = : O q A K T E E ~ ~ E U A B f > & u C U E Q ) ) ) ~ E S A f ; : ",
"& 3 u u a f f f x x t 3 a f p 3 $ 3 u f f f f f d d a a a y & + = o 5 y y u a u g g u u y t 4 1 , 3 i u a a f f g g f f a u - $ ",
"$ * * * * * , * * * * * * * * , $ $ * * * * * $ $ $ $ $ $ $ * @ & & $ & * & * , , , $ $ $ @ @ $ & + @ @ $ * * , , , , , , , & $ ",
"+ + + + + # $ $ $ $ $ $ @ @ + o o + + + + # # $ $ + + # $ - & & $ & - - & $ + 1 , & & $ + +     + + $ $ + $ $ $ $ @ + + + + + + ",
"= 8 d x c v m m m m m v v g > & & q d x c m m M V m m m m N N N N V Z Z Z N 0 m A A Z N N v q & $ 4 f h v m N m m m v v g f : $ ",
", 0 N A T E ~ ~ ~ ) ~ ~ T A q $ - d A T ~ ] ] ] ] ~ ~ T E T T ~ ~ ~ ~ _ ] ~ A E ] ] ] ~ Q S f $ $ q N S T Q ~ _ _ _ ~ ~ T A 0 > ",
", 0 Z T ~ ] X.X.X.X.X.} ) U q $ , f E ] X.@.#.#.#.X.X.] ] ] ] ] { { X.X.X.o.o.o.@.@.X.X.] T g $ - y A Q ] ] X.X.X.X.X.} ~ U t - ",
", q A ! ] X.#.$.$.$.#.#.} T t $ 1 c ] X.$.$.$.&.$.#.#.@.O.X.X.X.X.X.@.#.$.$.$.$.#.$.#.@.{ ~ c $ , a K _ X.@.#.$.$.$.$.#.X.~ u : ",
", t J ~ } @.$.&.*.*.&.$.X.E i $ 1 v { #.$.*.-.-.*.$.$.#.#.#.#.@.#.#.#.$.$.$.$.$.$.$.$.#.X.~ v $ : d T ] X.#.$.&.-.-.&.$.#.X.d > ",
", q U ~ X.#.$.*.-.#.*.&.@.~ p & 2 v X.$.&.-.-.-.-.-.$.$.#.#.#.#.#.#.#.$.$.$.$.$.$.$.$.#.X.~ v & , d T ] @.#.$.-.-.-.-.-.$.X.d : ",
"< 0 L ~ X.#.$.*.-.$.*.&.#.) i - 1 x X.$.*.-.-.-.-.-.&.$.$.#.#.#.#.#.$.$.$.$.$.$.$.$.$.#.X.~ v # - f Q } @.$.&.-.-.-.-.-.$.@.x : ",
"2 9 P ~ X.#.$.*.-.-.-.*.#.] u , < a X.$.*.-.-.-.-.-.*.$.$.#.#.#.#.#.$.$.$.$.$.$.$.$.$.#.X.~ c # $ q E X.#.$.&.-.-.-.-.&.O.@.j - ",
"1 0 G ) X.#.$.*.-.-.-.*.#.] a , < f X.$.-.-.-.-.-.-.*.$.$.#.#.#.#.#.#.#.#.#.$.$.$.$.#.@.X.~ c & & i E X.#.$.&.-.-.-.-.$.) X.x , ",
"4 i A ~ X.#.$.&.*.*.*.&.#.] d < < x X.$.*.-.-.-.-.-.*.$.#.#.#.#.#.#.#.#.#.#.$.$.$.#.#.O.X.~ c $ - d T ] @.$.&.-.-.-.-.&.#.} x < ",
"4 p A ~ } o.#.$.$.$.$.$.@.' d < 1 x } $.&.-.-.-.-.-.$.$.#.#.#.#.#.#.#.#.#.#.#.#.#.#.@.X.] Q c $ : a U ] o.#.$.&.-.-.-.$.#.] f 1 ",
"1 t Z E ] X.X.@.#.#.@.X.} ~ a < 2 c ] #.$.&.*.*.&.$.#.#.@.O.X.X.X.X.X.O.X.O.@.O.X.X.X.] ] T g & : t A ~ ] X.@.#.#.$.$.#.X._ d , ",
", q Z L E ) ] ] ] ] ] ' ~ T d < 4 x E ] X.#.#.#.@.X.X.X.] ] ] ] ] ] ] ] ] ] ] ] ! ~ ] ~ Q S f & = q C U ~ ] ] E L [ X.X._ E f , ",
"& : t a a d f f f f f d f a 3 $ - 0 d x c c c c c c x x f x f d d f f d d f f f t a c g v B u & : 3 u a f d a u 3 d x f f d q $ ",
"@ @ @ @ $ $ & & & & & @ $ @ @ @ @ @ @ @ $ $ * * * , , , , , , * * * * $ * * , , * * $ $ , 4 , * * * * * * * * * * * * * & & $ $ "
};
